<svg width="198" height="48" viewBox="0 0 198 48" fill="none" xmlns="http://www.w3.org/2000/svg">
<path d="M31.2287 2H14.3709L0.799805 15.5711V32.4289L14.3709 46H31.2287L44.7998 32.4289V15.5711L31.2287 2ZM16.7034 32.641L8.00946 23.947L16.7034 15.253C19.9902 11.9663 25.3974 11.9663 28.6842 15.253L37.3781 23.947L28.6842 32.641C25.3974 35.9277 20.0962 35.9277 16.7034 32.641Z" fill="#535862"/>
<path d="M64.1398 34.2401C66.8398 34.2401 69.0598 32.8601 69.7498 30.7901V34.0001H73.7398V25.9001C73.7398 24.0701 72.2998 22.5101 70.3498 22.5101H64.6498V25.9001H68.6998C69.2098 25.9001 69.5398 26.2301 69.5398 26.7401C69.5398 28.6901 66.9598 30.5801 64.3498 30.5801C60.8698 30.5801 58.1098 27.8501 58.1098 23.5001C58.1098 19.1501 60.8698 16.6301 64.4398 16.6301C67.1398 16.6301 68.9998 18.1001 69.3298 20.3501H73.7998C73.5298 15.8501 69.7498 12.7601 64.4698 12.7601C58.9198 12.7601 53.8198 16.3301 53.8198 23.5001C53.8198 30.6701 58.7698 34.2401 64.1398 34.2401Z" fill="#535862"/>
<path d="M75.4526 34.0001H79.6226V12.3101H75.4526V34.0001Z" fill="#535862"/>
<path d="M88.6177 34.2401C93.2677 34.2401 96.5977 30.9401 96.5977 26.4401C96.5977 21.9401 93.2677 18.6401 88.6177 18.6401C83.9677 18.6401 80.6377 21.9401 80.6377 26.4401C80.6377 30.9401 83.9677 34.2401 88.6177 34.2401ZM88.6177 30.6401C86.3677 30.6401 84.8377 28.9301 84.8377 26.4401C84.8377 23.9201 86.3677 22.2101 88.6177 22.2101C90.8677 22.2101 92.3977 23.9201 92.3977 26.4401C92.3977 28.9301 90.8677 30.6401 88.6177 30.6401Z" fill="#535862"/>
<path d="M105.929 34.2401C110.399 34.2401 113.069 31.1501 113.069 26.4401C113.069 21.7301 110.399 18.6401 105.989 18.6401C104.099 18.6401 102.629 19.3601 101.789 20.4701V12.3101H97.6187V34.0001H101.789V32.3501C102.629 33.5201 104.189 34.2401 105.929 34.2401ZM105.269 30.6401C103.019 30.6401 101.549 28.9601 101.549 26.4401C101.549 23.8901 103.019 22.2101 105.269 22.2101C107.459 22.2101 108.959 23.8901 108.959 26.4401C108.959 28.9601 107.459 30.6401 105.269 30.6401Z" fill="#535862"/>
<path d="M120.049 18.6401C115.909 18.6401 113.449 21.0701 113.269 24.1001H116.989C117.049 22.8401 117.979 21.7001 119.809 21.7001C121.519 21.7001 122.509 22.5701 122.509 23.8301C122.509 24.4601 122.119 24.9401 121.369 24.9401H118.819C115.519 24.9401 113.299 26.7401 113.299 29.7101C113.299 32.2901 115.309 34.2401 118.249 34.2401C120.319 34.2401 121.999 33.3101 122.509 31.9001V34.0001H126.649V24.2801C126.649 20.8601 123.859 18.6401 120.049 18.6401ZM119.299 31.2101C118.129 31.2101 117.289 30.5201 117.289 29.5301C117.289 28.3601 118.189 27.5801 119.449 27.5801H122.509V27.7901C122.509 29.7101 121.339 31.2101 119.299 31.2101Z" fill="#535862"/>
<path d="M128.251 34.0001H132.421V12.3101H128.251V34.0001Z" fill="#535862"/>
<path d="M134.637 34.0001H143.217C147.657 34.0001 150.717 31.7201 150.717 27.7301C150.717 24.9701 149.097 23.2901 147.177 22.5401C148.407 21.8801 149.637 20.3801 149.637 18.4001C149.637 14.8901 146.787 13.0001 142.977 13.0001H134.637V34.0001ZM139.077 21.0101V16.5701H142.557C144.567 16.5701 145.467 17.3801 145.467 18.7901C145.467 20.2001 144.567 21.0101 142.647 21.0101H139.077ZM139.077 30.1001V24.8201H142.827C145.317 24.8201 146.427 25.7801 146.427 27.4901C146.427 29.2001 145.317 30.1001 142.827 30.1001H139.077Z" fill="#535862"/>
<path d="M157.971 18.6401C153.831 18.6401 151.371 21.0701 151.191 24.1001H154.911C154.971 22.8401 155.901 21.7001 157.731 21.7001C159.441 21.7001 160.431 22.5701 160.431 23.8301C160.431 24.4601 160.041 24.9401 159.291 24.9401H156.741C153.441 24.9401 151.221 26.7401 151.221 29.7101C151.221 32.2901 153.231 34.2401 156.171 34.2401C158.241 34.2401 159.921 33.3101 160.431 31.9001V34.0001H164.571V24.2801C164.571 20.8601 161.781 18.6401 157.971 18.6401ZM157.221 31.2101C156.051 31.2101 155.211 30.5201 155.211 29.5301C155.211 28.3601 156.111 27.5801 157.371 27.5801H160.431V27.7901C160.431 29.7101 159.261 31.2101 157.221 31.2101Z" fill="#535862"/>
<path d="M165.933 34.0001H170.133V25.7201C170.133 23.7701 171.423 22.3601 173.253 22.3601C174.993 22.3601 176.163 23.6801 176.163 25.5101V34.0001H180.363V24.5801C180.363 21.1001 178.143 18.6401 174.723 18.6401C172.653 18.6401 170.973 19.5101 170.133 20.9801V18.8801H165.933V34.0001Z" fill="#535862"/>
<path d="M192.334 34.0001H197.374L190.864 24.8201L196.894 18.8801H191.614L186.364 24.0401V12.3101H182.164V34.0001H186.364V29.2601L188.044 27.6101L192.334 34.0001Z" fill="#535862"/>
</svg>
